<mxfile host="app.diagrams.net" agent="Mozilla/5.0 (Windows NT 10.0; Win64; x64) AppleWebKit/537.36 (KHTML, like Gecko) Chrome/136.0.0.0 Safari/537.36" version="27.0.9">
  <diagram name="Page-1" id="Dk6LorxsQT1LgeasZcMn">
    <mxGraphModel dx="933" dy="562" grid="1" gridSize="10" guides="1" tooltips="1" connect="1" arrows="1" fold="1" page="1" pageScale="1" pageWidth="850" pageHeight="1100" math="0" shadow="0">
      <root>
        <mxCell id="0" />
        <mxCell id="1" parent="0" />
        <mxCell id="9PYSBJsJAbEqolHWjfpx-3" value="" style="edgeStyle=orthogonalEdgeStyle;rounded=0;orthogonalLoop=1;jettySize=auto;html=1;" edge="1" parent="1" source="9PYSBJsJAbEqolHWjfpx-1" target="9PYSBJsJAbEqolHWjfpx-2">
          <mxGeometry relative="1" as="geometry" />
        </mxCell>
        <mxCell id="9PYSBJsJAbEqolHWjfpx-1" value="PLC" style="ellipse;whiteSpace=wrap;html=1;aspect=fixed;" vertex="1" parent="1">
          <mxGeometry x="20" y="120" width="80" height="80" as="geometry" />
        </mxCell>
        <mxCell id="9PYSBJsJAbEqolHWjfpx-5" value="" style="edgeStyle=orthogonalEdgeStyle;rounded=0;orthogonalLoop=1;jettySize=auto;html=1;" edge="1" parent="1" source="9PYSBJsJAbEqolHWjfpx-2" target="9PYSBJsJAbEqolHWjfpx-4">
          <mxGeometry relative="1" as="geometry" />
        </mxCell>
        <mxCell id="9PYSBJsJAbEqolHWjfpx-17" value="&lt;font style=&quot;font-size: 14px;&quot;&gt;&lt;b&gt;Yes&lt;/b&gt;&lt;/font&gt;" style="edgeLabel;html=1;align=center;verticalAlign=middle;resizable=0;points=[];" vertex="1" connectable="0" parent="9PYSBJsJAbEqolHWjfpx-5">
          <mxGeometry x="-0.35" y="3" relative="1" as="geometry">
            <mxPoint as="offset" />
          </mxGeometry>
        </mxCell>
        <mxCell id="9PYSBJsJAbEqolHWjfpx-2" value="Carrier arrived at stopper?" style="rhombus;whiteSpace=wrap;html=1;" vertex="1" parent="1">
          <mxGeometry x="140" y="120" width="140" height="80" as="geometry" />
        </mxCell>
        <mxCell id="9PYSBJsJAbEqolHWjfpx-7" value="" style="edgeStyle=orthogonalEdgeStyle;rounded=0;orthogonalLoop=1;jettySize=auto;html=1;" edge="1" parent="1" source="9PYSBJsJAbEqolHWjfpx-4" target="9PYSBJsJAbEqolHWjfpx-6">
          <mxGeometry relative="1" as="geometry" />
        </mxCell>
        <mxCell id="9PYSBJsJAbEqolHWjfpx-4" value="Read out the carrier ID with RFID" style="whiteSpace=wrap;html=1;" vertex="1" parent="1">
          <mxGeometry x="320" y="130" width="120" height="60" as="geometry" />
        </mxCell>
        <mxCell id="9PYSBJsJAbEqolHWjfpx-9" value="" style="edgeStyle=orthogonalEdgeStyle;rounded=0;orthogonalLoop=1;jettySize=auto;html=1;" edge="1" parent="1" source="9PYSBJsJAbEqolHWjfpx-6" target="9PYSBJsJAbEqolHWjfpx-8">
          <mxGeometry relative="1" as="geometry" />
        </mxCell>
        <mxCell id="9PYSBJsJAbEqolHWjfpx-6" value="Read current date&amp;amp;time&amp;nbsp;" style="whiteSpace=wrap;html=1;" vertex="1" parent="1">
          <mxGeometry x="460" y="130" width="120" height="60" as="geometry" />
        </mxCell>
        <mxCell id="9PYSBJsJAbEqolHWjfpx-11" value="" style="edgeStyle=orthogonalEdgeStyle;rounded=0;orthogonalLoop=1;jettySize=auto;html=1;" edge="1" parent="1" source="9PYSBJsJAbEqolHWjfpx-8" target="9PYSBJsJAbEqolHWjfpx-10">
          <mxGeometry relative="1" as="geometry" />
        </mxCell>
        <mxCell id="9PYSBJsJAbEqolHWjfpx-8" value="Get station ID" style="whiteSpace=wrap;html=1;" vertex="1" parent="1">
          <mxGeometry x="600" y="130" width="120" height="60" as="geometry" />
        </mxCell>
        <mxCell id="9PYSBJsJAbEqolHWjfpx-41" style="edgeStyle=orthogonalEdgeStyle;rounded=0;orthogonalLoop=1;jettySize=auto;html=1;exitX=1;exitY=0.5;exitDx=0;exitDy=0;entryX=1;entryY=0.5;entryDx=0;entryDy=0;" edge="1" parent="1" source="9PYSBJsJAbEqolHWjfpx-10" target="9PYSBJsJAbEqolHWjfpx-12">
          <mxGeometry relative="1" as="geometry" />
        </mxCell>
        <mxCell id="9PYSBJsJAbEqolHWjfpx-10" value="Format ID, data&amp;amp;time and StationID as a XML string" style="whiteSpace=wrap;html=1;" vertex="1" parent="1">
          <mxGeometry x="740" y="130" width="120" height="60" as="geometry" />
        </mxCell>
        <mxCell id="9PYSBJsJAbEqolHWjfpx-42" style="edgeStyle=orthogonalEdgeStyle;rounded=0;orthogonalLoop=1;jettySize=auto;html=1;exitX=0;exitY=0.5;exitDx=0;exitDy=0;entryX=1;entryY=0.5;entryDx=0;entryDy=0;" edge="1" parent="1" source="9PYSBJsJAbEqolHWjfpx-12" target="9PYSBJsJAbEqolHWjfpx-34">
          <mxGeometry relative="1" as="geometry" />
        </mxCell>
        <mxCell id="9PYSBJsJAbEqolHWjfpx-46" style="edgeStyle=orthogonalEdgeStyle;rounded=0;orthogonalLoop=1;jettySize=auto;html=1;exitX=0.5;exitY=1;exitDx=0;exitDy=0;entryX=0.5;entryY=0;entryDx=0;entryDy=0;dashed=1;startArrow=classic;startFill=1;" edge="1" parent="1" source="9PYSBJsJAbEqolHWjfpx-12" target="9PYSBJsJAbEqolHWjfpx-21">
          <mxGeometry relative="1" as="geometry" />
        </mxCell>
        <mxCell id="9PYSBJsJAbEqolHWjfpx-47" value="&lt;b&gt;&lt;font style=&quot;font-size: 14px;&quot;&gt;TCP connection&lt;/font&gt;&lt;/b&gt;" style="edgeLabel;html=1;align=center;verticalAlign=middle;resizable=0;points=[];" vertex="1" connectable="0" parent="9PYSBJsJAbEqolHWjfpx-46">
          <mxGeometry x="0.1501" y="2" relative="1" as="geometry">
            <mxPoint x="39" y="-2" as="offset" />
          </mxGeometry>
        </mxCell>
        <mxCell id="9PYSBJsJAbEqolHWjfpx-12" value="Send XML string over TCP to PC(Server)" style="whiteSpace=wrap;html=1;" vertex="1" parent="1">
          <mxGeometry x="740" y="210" width="120" height="60" as="geometry" />
        </mxCell>
        <mxCell id="9PYSBJsJAbEqolHWjfpx-44" style="edgeStyle=orthogonalEdgeStyle;rounded=0;orthogonalLoop=1;jettySize=auto;html=1;exitX=0;exitY=0.5;exitDx=0;exitDy=0;entryX=0.5;entryY=1;entryDx=0;entryDy=0;" edge="1" parent="1" source="9PYSBJsJAbEqolHWjfpx-14" target="9PYSBJsJAbEqolHWjfpx-2">
          <mxGeometry relative="1" as="geometry">
            <mxPoint x="120.00000000000011" y="220" as="targetPoint" />
            <Array as="points">
              <mxPoint x="210" y="240" />
            </Array>
          </mxGeometry>
        </mxCell>
        <mxCell id="9PYSBJsJAbEqolHWjfpx-14" value="Release carrier" style="whiteSpace=wrap;html=1;" vertex="1" parent="1">
          <mxGeometry x="460" y="210" width="120" height="60" as="geometry" />
        </mxCell>
        <mxCell id="9PYSBJsJAbEqolHWjfpx-22" value="" style="edgeStyle=orthogonalEdgeStyle;rounded=0;orthogonalLoop=1;jettySize=auto;html=1;" edge="1" parent="1" source="9PYSBJsJAbEqolHWjfpx-20" target="9PYSBJsJAbEqolHWjfpx-21">
          <mxGeometry relative="1" as="geometry" />
        </mxCell>
        <mxCell id="9PYSBJsJAbEqolHWjfpx-20" value="PC" style="ellipse;whiteSpace=wrap;html=1;aspect=fixed;" vertex="1" parent="1">
          <mxGeometry x="20" y="309.94" width="80" height="80" as="geometry" />
        </mxCell>
        <mxCell id="9PYSBJsJAbEqolHWjfpx-24" value="" style="edgeStyle=orthogonalEdgeStyle;rounded=0;orthogonalLoop=1;jettySize=auto;html=1;" edge="1" parent="1" source="9PYSBJsJAbEqolHWjfpx-21" target="9PYSBJsJAbEqolHWjfpx-23">
          <mxGeometry relative="1" as="geometry" />
        </mxCell>
        <mxCell id="9PYSBJsJAbEqolHWjfpx-38" value="&lt;font style=&quot;font-size: 15px;&quot;&gt;&lt;b&gt;Yes&lt;/b&gt;&lt;/font&gt;" style="edgeLabel;html=1;align=center;verticalAlign=middle;resizable=0;points=[];" vertex="1" connectable="0" parent="9PYSBJsJAbEqolHWjfpx-24">
          <mxGeometry x="-0.4197" y="3" relative="1" as="geometry">
            <mxPoint as="offset" />
          </mxGeometry>
        </mxCell>
        <mxCell id="9PYSBJsJAbEqolHWjfpx-21" value="Is there recieved &lt;br&gt;data from TCP client?" style="rhombus;whiteSpace=wrap;html=1;" vertex="1" parent="1">
          <mxGeometry x="120" y="309.94" width="155" height="80" as="geometry" />
        </mxCell>
        <mxCell id="9PYSBJsJAbEqolHWjfpx-26" value="" style="edgeStyle=orthogonalEdgeStyle;rounded=0;orthogonalLoop=1;jettySize=auto;html=1;" edge="1" parent="1" source="9PYSBJsJAbEqolHWjfpx-23" target="9PYSBJsJAbEqolHWjfpx-25">
          <mxGeometry relative="1" as="geometry" />
        </mxCell>
        <mxCell id="9PYSBJsJAbEqolHWjfpx-23" value="Parse XML data into info" style="whiteSpace=wrap;html=1;" vertex="1" parent="1">
          <mxGeometry x="310" y="319.94" width="120" height="60" as="geometry" />
        </mxCell>
        <mxCell id="9PYSBJsJAbEqolHWjfpx-28" value="" style="edgeStyle=orthogonalEdgeStyle;rounded=0;orthogonalLoop=1;jettySize=auto;html=1;" edge="1" parent="1" source="9PYSBJsJAbEqolHWjfpx-25" target="9PYSBJsJAbEqolHWjfpx-27">
          <mxGeometry relative="1" as="geometry" />
        </mxCell>
        <mxCell id="9PYSBJsJAbEqolHWjfpx-25" value="Reformat data" style="whiteSpace=wrap;html=1;" vertex="1" parent="1">
          <mxGeometry x="450" y="319.94" width="120" height="60" as="geometry" />
        </mxCell>
        <mxCell id="9PYSBJsJAbEqolHWjfpx-30" value="" style="edgeStyle=orthogonalEdgeStyle;rounded=0;orthogonalLoop=1;jettySize=auto;html=1;" edge="1" parent="1" source="9PYSBJsJAbEqolHWjfpx-27" target="9PYSBJsJAbEqolHWjfpx-29">
          <mxGeometry relative="1" as="geometry" />
        </mxCell>
        <mxCell id="9PYSBJsJAbEqolHWjfpx-27" value="Published the reformatted data to ROS2 topic" style="whiteSpace=wrap;html=1;" vertex="1" parent="1">
          <mxGeometry x="590" y="319.94" width="120" height="60" as="geometry" />
        </mxCell>
        <mxCell id="9PYSBJsJAbEqolHWjfpx-45" style="edgeStyle=orthogonalEdgeStyle;rounded=0;orthogonalLoop=1;jettySize=auto;html=1;exitX=1;exitY=0.5;exitDx=0;exitDy=0;entryX=0.5;entryY=1;entryDx=0;entryDy=0;" edge="1" parent="1" source="9PYSBJsJAbEqolHWjfpx-29" target="9PYSBJsJAbEqolHWjfpx-21">
          <mxGeometry relative="1" as="geometry" />
        </mxCell>
        <mxCell id="9PYSBJsJAbEqolHWjfpx-29" value="Return proccessing time over TCP connection" style="whiteSpace=wrap;html=1;" vertex="1" parent="1">
          <mxGeometry x="730" y="319.94" width="120" height="60" as="geometry" />
        </mxCell>
        <mxCell id="9PYSBJsJAbEqolHWjfpx-43" style="edgeStyle=orthogonalEdgeStyle;rounded=0;orthogonalLoop=1;jettySize=auto;html=1;exitX=0;exitY=0.5;exitDx=0;exitDy=0;entryX=1;entryY=0.5;entryDx=0;entryDy=0;" edge="1" parent="1" source="9PYSBJsJAbEqolHWjfpx-34" target="9PYSBJsJAbEqolHWjfpx-14">
          <mxGeometry relative="1" as="geometry" />
        </mxCell>
        <mxCell id="9PYSBJsJAbEqolHWjfpx-34" value="Wait TCP reponse and wait for the amount returned" style="whiteSpace=wrap;html=1;" vertex="1" parent="1">
          <mxGeometry x="600" y="210" width="120" height="60" as="geometry" />
        </mxCell>
      </root>
    </mxGraphModel>
  </diagram>
</mxfile>
